<?xml version="1.0" standalone="no"?><!DOCTYPE svg PUBLIC "-//W3C//DTD SVG 1.1//EN" "http://www.w3.org/Graphics/SVG/1.1/DTD/svg11.dtd"><svg t="1781389611322" class="icon" viewBox="0 0 1024 1024" version="1.1" xmlns="http://www.w3.org/2000/svg" p-id="31873" xmlns:xlink="http://www.w3.org/1999/xlink" width="200" height="200"><path d="M462.848 666.624c24.576 48.64 105.472 139.264 107.008 209.92 42.496-9.728 116.224-35.328 148.992-102.4 48.128-96.768 18.944-174.592 29.184-204.288 10.24-30.208 60.416-150.528 181.248-81.92 120.832 69.12 110.592 169.984 56.32 196.096-54.272 25.6-148.992 22.528-87.552 0 59.392-21.504 135.68-59.904 50.176-135.68-66.048-58.368-91.648-58.88-143.872-12.8-62.976 55.296 32.256 193.024-87.552 301.568-68.096 61.44-121.344 72.704-152.576 72.192-4.096 9.728-10.752 18.432-19.968 26.112-47.104 44.544-241.664 2.56-209.92-19.456 30.72-20.992 45.568-233.472 46.592-252.416-1.024 0-2.56-0.512-3.584-0.512-283.648 35.328-532.992-195.072-257.536-413.184l44.544-181.76 70.656 120.32c176.64-19.456 258.56-24.576 347.648 7.68l67.584-122.88 36.352 185.344c186.368 162.304 65.024 399.36-223.744 408.064z m-245.248-108.032c49.664 0 89.6-47.616 89.6-106.496s-39.936-106.496-89.6-106.496S128 393.216 128 452.096s39.936 106.496 89.6 106.496z m341.504 0c49.664 0 89.6-47.616 89.6-106.496s-40.448-106.496-89.6-106.496-89.6 47.616-89.6 106.496 39.936 106.496 89.6 106.496z m-341.504-138.24c6.144 0 10.752 4.608 10.752 10.752v42.496c0 6.144-4.608 10.752-10.752 10.752-6.144 0-10.752-4.608-10.752-10.752v-42.496c0-6.144 4.608-10.752 10.752-10.752z m341.504 0c6.144 0 10.752 4.608 10.752 10.752v42.496c0 6.144-4.608 10.752-10.752 10.752-6.144 0-10.752-4.608-10.752-10.752v-42.496c0-6.144 4.608-10.752 10.752-10.752z" fill="#666666" p-id="31874"></path></svg>