<?xml version="1.0" standalone="no"?><!DOCTYPE svg PUBLIC "-//W3C//DTD SVG 1.1//EN" "http://www.w3.org/Graphics/SVG/1.1/DTD/svg11.dtd"><svg t="1781389421929" class="icon" viewBox="0 0 1024 1024" version="1.1" xmlns="http://www.w3.org/2000/svg" p-id="9310" xmlns:xlink="http://www.w3.org/1999/xlink" width="200" height="200"><path d="M181.402405 35.9963c-5.683626 19.892692-10.419981 53.047179-10.419981 74.834412 0 34.101758-3.789084 40.732655-42.627197 68.203516C64.888067 223.555967 28.891767 286.075856 28.891767 349.543016c0 65.361702 19.892692 106.094357 76.728955 157.246993C149.19519 545.628122 272.340426 607.20074 307.389454 607.20074c13.261795 0 15.156337 25.576318 15.156337 208.39963v208.39963h176.192414c162.93062 0 175.245143-0.947271 170.508789-17.050879-7.578168-24.629047-62.519889-357.121184-62.519889-378.908418 0-14.209066 10.419981-20.839963 43.574468-29.365402 98.516189-25.576318 197.032377-94.727105 233.028677-165.772433 41.679926-82.412581 6.630897-191.348751-83.359852-253.86864-39.785384-29.365402-41.679926-32.207216-41.679926-77.676226 0-59.678076-8.525439-90.93802-23.681776-90.938021-5.683626 0-31.259944 20.839963-56.836263 46.416282-44.521739 45.46901-45.46901 45.46901-84.307123 36.94357-50.205365-12.314524-207.452359-11.367253-258.604995 0-35.9963 8.525439-41.679926 7.578168-53.99445-12.314523-7.578168-11.367253-31.259944-35.049029-52.099908-51.152637l-37.890841-30.312673-9.472711 35.9963z m88.096207 55.888991c4.736355 13.261795-4.736355 19.892692-57.783533 35.9963-18.945421 5.683626-21.787234 3.789084-21.787234-16.103608 0-13.261795 2.841813-35.9963 5.683626-52.099907l5.683626-29.365403 31.259945 23.681777c17.050879 13.261795 34.101758 30.312673 36.94357 37.890841z m474.582794 2.841814c6.630897 40.732655 6.630897 41.679926-17.050879 35.049028-14.209066-2.841813-36.943571-10.419981-51.152636-16.103608l-26.523589-9.47271 35.996299-34.101758c20.839963-17.99815 40.732655-29.365402 44.521739-25.576318 3.789084 4.736355 10.419981 27.47086 14.209066 50.205366zM339.59667 277.550416c37.890842 18.945421 38.838113 50.205365 0 71.045329-43.574468 22.734505-170.508788 22.734505-213.135985 0-53.047179-28.418131-36.943571-63.46716 39.785383-83.359852 37.890842-10.419981 141.143386-2.841813 173.350602 12.314523z m379.855689-10.419981c47.363552 10.419981 83.359852 36.943571 71.992599 54.94172-26.523589 43.574468-185.665125 59.678076-248.185014 26.52359-93.779833-50.205365 37.890842-111.777983 176.192415-81.46531z m-244.39593 132.617946c25.576318 13.261795 6.630897 36.943571-29.365402 36.943571-35.049029 0-54.941721-22.734505-31.259945-36.943571 21.787234-12.314524 37.890842-13.261795 60.625347 0z" p-id="9311"></path><path d="M260.025902 288.917669c-7.578168 19.892692-0.947271 55.888992 12.314524 59.678076 5.683626 1.894542 13.261795-4.736355 17.050878-15.156337 11.367253-37.890842-16.103608-79.570768-29.365402-44.521739zM676.825162 288.917669c-7.578168 19.892692-0.947271 55.888992 12.314523 59.678076 5.683626 1.894542 13.261795-4.736355 17.050879-15.156337 11.367253-37.890842-16.103608-79.570768-29.365402-44.521739z" p-id="9312"></path></svg>